# xmcd
#
# Track frame offsets:
#	150
#	21205
#	37465
#	50172
#	67302
#	85100
#	98005
#	119670
#	133477
#	144472
#	161942
#	181970
#	197732
#	211000
#	221680
#	238450
#
# Disc length: 3472 seconds
#
# Revision: 1
# Processed by: cddbd v1.5.2PL0 Copyright (c) Steve Scherf et al.
# Submitted via: dBpowerAMP V4.0
#
DISCID=090d8e10
DTITLE=Various Artist - The Great 70's
DYEAR=1994
DGENRE=Blues
TTITLE0=Gladys Knight and The Pips - Midnight Train To Georgia
TTITLE1=David Soul - Dont/T Give Up On Us
TTITLE2=Bread - If
TTITLE3=Melanie - Nickel Song
TTITLE4=The Stories - Brother Louie
TTITLE5=Mungo Jerry - Alright Alright Alright
TTITLE6=The Trammps - Sixty Minute Man
TTITLE7=Andrea True Connection - More More More
TTITLE8=Desmond Dekker - You Can Get It If You Really Want
TTITLE9=Barry Biggs - Ring Circus
TTITLE10=Gladys Knight and The Pips - Where Peaceful Waters Flow
TTITLE11=Ray Stevens - Everything Is Beautiful
TTITLE12=Lynn Anderson - Rose Garden
TTITLE13=Ocean - Put Your Hand In The Hand
TTITLE14=Melanie - Lay Down
TTITLE15=The Trammps - Zing Went The Strings Of My Heart
EXTD=
EXTT0=
EXTT1=
EXTT2=
EXTT3=
EXTT4=
EXTT5=
EXTT6=
EXTT7=
EXTT8=
EXTT9=
EXTT10=
EXTT11=
EXTT12=
EXTT13=
EXTT14=
EXTT15=
PLAYORDER=
